<?xml version="1.0" encoding="UTF-8"?>
<svg id="Calque_2" data-name="Calque 2" xmlns="http://www.w3.org/2000/svg" viewBox="0 0 204.96 266.48">
  <defs>
    <style>
      .cls-1 {
        fill: #2b83cb;
      }
    </style>
  </defs>
  <g id="_ëîé_1" data-name="‘ëîé_1">
    <g>
      <path class="cls-1" d="m83.71,205.01v11.4c14.44,4.01,23.37,11.22,23.37,17.92,0,9.96-19.71,21.06-47.99,21.06s-47.99-11.1-47.99-21.06c0-6.43,8.22-13.33,21.66-17.42v-11.46C13.18,210.63,0,221.48,0,234.33c0,18.03,25.95,32.15,59.08,32.15s59.08-14.12,59.08-32.15c0-13.22-13.96-24.32-34.45-29.32Z"/>
      <path class="cls-1" d="m58.22,234.8h0c-4.78,0-8.65-3.87-8.65-8.65V8.65c0-4.78,3.87-8.65,8.65-8.65h0c4.78,0,8.65,3.87,8.65,8.65v217.5c0,4.78-3.87,8.65-8.65,8.65Z"/>
      <polygon class="cls-1" points="82.85 103.22 82.85 12.88 204.96 12.88 82.85 103.22"/>
    </g>
  </g>
</svg>