<?xml version="1.0" encoding="UTF-8"?>
<svg id="Calque_2" data-name="Calque 2" xmlns="http://www.w3.org/2000/svg" viewBox="0 0 96.86 263.68">
  <defs>
    <style>
      .cls-1 {
        fill: #4bb39a;
      }
    </style>
  </defs>
  <g id="_ëîé_1" data-name="‘ëîé_1">
    <g>
      <path class="cls-1" d="m87.09,127.28h0c-7.07,0-12.9-5.54-13.26-12.6l-4.71-92.23c-.1-1.93,1.44-3.56,3.38-3.56h0c5.22,0,9.45-4.23,9.45-9.45h0c0-5.22-4.23-9.45-9.45-9.45H24.36c-5.22,0-9.45,4.23-9.45,9.45h0c0,5.22,4.23,9.45,9.45,9.45h0c1.94,0,3.48,1.62,3.38,3.56l-4.71,92.23c-.36,7.06-6.19,12.6-13.26,12.6h0c-5.03,0-9.42,3.8-9.75,8.82-.36,5.5,4,10.08,9.43,10.08h77.97c5.43,0,9.78-4.57,9.43-10.08-.33-5.02-4.72-8.82-9.75-8.82Z"/>
      <path class="cls-1" d="m48.43,263.68h0c-6.39-8.35-9.85-18.56-9.85-29.08v-68c0-5.44,4.41-9.85,9.85-9.85h0c5.44,0,9.85,4.41,9.85,9.85v68c0,10.51-3.46,20.73-9.85,29.08Z"/>
    </g>
  </g>
</svg>